<?xml version="1.0" encoding="UTF-8" standalone="no"?>
<!-- Created with Inkscape (http://www.inkscape.org/) -->

<svg
   xmlns:dc="http://purl.org/dc/elements/1.1/"
   xmlns:cc="http://creativecommons.org/ns#"
   xmlns:rdf="http://www.w3.org/1999/02/22-rdf-syntax-ns#"
   xmlns:svg="http://www.w3.org/2000/svg"
   xmlns="http://www.w3.org/2000/svg"
   xmlns:sodipodi="http://sodipodi.sourceforge.net/DTD/sodipodi-0.dtd"
   xmlns:inkscape="http://www.inkscape.org/namespaces/inkscape"
   width="84.848839mm"
   height="15.429956mm"
   viewBox="0 0 300.64544 54.673073"
   id="svg2"
   version="1.1"
   inkscape:version="0.91 r13725"
   sodipodi:docname="logo.svg">
  <defs
     id="defs4">
    <clipPath
       id="clipPath3350"
       clipPathUnits="userSpaceOnUse">
      <path
         inkscape:connector-curvature="0"
         id="path3352"
         d="M 0,612 792,612 792,0 0,0 0,612 Z" />
    </clipPath>
    <clipPath
       id="clipPath3433"
       clipPathUnits="userSpaceOnUse">
      <path
         inkscape:connector-curvature="0"
         id="path3435"
         d="m 0,103.371 367.416,0 L 367.416,0 0,0 0,103.371 Z" />
    </clipPath>
    <clipPath
       id="clipPath3433-0"
       clipPathUnits="userSpaceOnUse">
      <path
         inkscape:connector-curvature="0"
         id="path3435-8"
         d="m 0,103.371 367.416,0 L 367.416,0 0,0 0,103.371 Z" />
    </clipPath>
  </defs>
  <sodipodi:namedview
     id="base"
     pagecolor="#ffffff"
     bordercolor="#666666"
     borderopacity="1.0"
     inkscape:pageopacity="0.0"
     inkscape:pageshadow="2"
     inkscape:zoom="1.4"
     inkscape:cx="177.01337"
     inkscape:cy="-69.179928"
     inkscape:document-units="px"
     inkscape:current-layer="layer1"
     showgrid="false"
     inkscape:window-width="1920"
     inkscape:window-height="1018"
     inkscape:window-x="-8"
     inkscape:window-y="-8"
     inkscape:window-maximized="1"
     fit-margin-top="0"
     fit-margin-left="0"
     fit-margin-right="0"
     fit-margin-bottom="0" />
  <metadata
     id="metadata7">
    <rdf:RDF>
      <cc:Work
         rdf:about="">
        <dc:format>image/svg+xml</dc:format>
        <dc:type
           rdf:resource="http://purl.org/dc/dcmitype/StillImage" />
        <dc:title></dc:title>
      </cc:Work>
    </rdf:RDF>
  </metadata>
  <g
     inkscape:label="Layer 1"
     inkscape:groupmode="layer"
     id="layer1"
     transform="translate(-359.68159,-122.7787)">
    <g
       transform="matrix(1.25,0,0,-1.25,-70.014227,247.52252)"
       inkscape:label="RGB_MdotLeft"
       id="g3427">
      <g
         id="g3429"
         transform="translate(246.85714,22.285714)">
        <g
           clip-path="url(#clipPath3433-0)"
           id="g3431">
          <g
             transform="translate(108.8535,77.5049)"
             id="g3437">
            <path
               inkscape:connector-curvature="0"
               id="path3439"
               style="fill:#ca2027;fill-opacity:1;fill-rule:nonzero;stroke:none"
               d="m 0,0 c 1.84,0 3.616,-2.136 5.496,-4.396 1.687,-2.028 8.812,-13.26 9.469,-14.52 0.657,-1.26 0.959,-1.706 1.435,-1.706 0.477,0 0.859,-0.017 1.937,2.518 2.181,5.125 7.259,12.229 11.053,15.956 1.267,1.244 1.747,2.118 3.134,2.132 4.107,0.046 10.33,0 10.839,0 0.509,0 1.203,-0.234 1.203,-1.003 0,-0.768 -0.03,-1.874 -0.03,-3.133 0,-1.26 -1.393,-1.629 -2.034,-1.629 -0.641,0 -1.189,-0.386 -1.731,-0.923 -0.933,-0.926 -0.891,-1.905 -0.891,-3.702 0,-1.798 0.011,-21.847 -0.009,-24.335 -0.017,-1.967 2.046,-2.425 2.998,-2.563 0.953,-0.138 2.025,-0.523 2.019,-1.244 -0.005,-0.522 -0.01,-3.032 -0.01,-3.308 0,-0.277 -0.171,-1.646 -1.469,-1.646 l -14.785,0 c -0.739,0 -1.771,0.403 -1.771,0.786 l 0,4.201 c 0,0.661 0.499,1.134 1.107,1.134 0.608,0 0.099,0.019 0.789,0.019 0.69,0 2.382,0.562 2.448,3.066 0.021,0.815 0.014,17.551 0.019,18.304 0.004,0.445 -0.004,1.681 -0.836,1.681 -0.833,0 -0.958,-0.542 -1.6,-1.465 -3.189,-4.596 -7.004,-13.351 -8.507,-18.31 -0.394,-1.301 -0.629,-2.042 -0.691,-2.194 -0.312,-0.77 -0.884,-1.515 -1.65,-1.778 -0.524,-0.178 -2.29,-0.405 -3.604,0.455 -0.665,0.436 -0.818,1.021 -0.975,1.694 -0.139,0.6 -0.313,1.156 -0.453,1.625 -3.758,12.596 -9.899,18.637 -10.269,19.268 -0.161,0.277 -0.604,0.739 -0.894,0.64 -0.18,-0.062 -0.243,-0.255 -0.243,-0.731 0,-0.477 0.004,-18.722 0.004,-19.873 0,-1.153 1.136,-2.029 1.974,-2.229 0.838,-0.2 2.264,-0.284 2.254,-1.253 -0.005,-0.521 -0.013,-3 -0.013,-3.844 0,-0.844 -0.731,-1.09 -1.207,-1.09 -0.477,0 -13.667,0.015 -14.784,0.02 -0.674,0.003 -1.35,0.358 -1.36,0.941 -0.004,0.201 0.01,3.394 0.01,4.118 0,0.721 0.505,1.01 0.874,1.108 0.439,0.052 0.864,0.046 1.291,0.046 0.428,0 2.385,0.179 2.392,3.066 0.008,3.548 0,23.512 0,25.539 0,2.029 -2.658,2.707 -2.97,2.707 -0.313,0 -0.714,0.01 -1.125,0.01 -0.41,0 -0.627,0.423 -0.755,0.654 l -0.033,4.271 c 0.017,0.492 0.332,0.912 0.73,0.897 0,0 9.384,0.019 11.224,0.019" />
          </g>
          <g
             transform="translate(329.9009,76.8809)"
             id="g3441">
            <path
               inkscape:connector-curvature="0"
               id="path3443"
               style="fill:#ca2027;fill-opacity:1;fill-rule:nonzero;stroke:none"
               d="m 0,0 c 0.278,0 1.698,0.059 1.698,-1.462 l 0,-6.158 c 0,-0.768 0.472,-1.117 1.079,-1.117 0.608,0 1.769,-0.016 2.541,-0.016 0.775,0 1.854,-0.185 1.854,-0.968 0,-0.784 -0.035,-2.698 -0.026,-3.358 0.013,-0.922 -0.487,-1.28 -0.962,-1.28 -0.478,0 -2.717,-0.009 -3.194,-0.009 -0.476,0 -1.281,-0.186 -1.281,-0.954 0,-0.769 -0.014,-15.112 -0.014,-18.553 0,-3.441 4.311,-3.245 4.821,-3.245 0.508,0 0.999,-0.464 0.999,-1.247 0,-0.783 -0.136,-2.707 -0.136,-3.26 0,-0.553 -0.447,-1.144 -1.121,-1.252 -0.674,-0.109 -1.381,-0.228 -1.774,-0.228 -0.542,0 -0.222,-0.013 -4.232,0.015 -4.369,0.03 -7.209,3.634 -7.228,8.52 -0.006,1.92 -0.016,18.399 -0.01,18.875 0.01,0.86 -0.194,1.318 -0.702,1.318 l -1.989,0 c -0.755,0 -0.96,0.229 -0.96,0.642 0,0.415 -0.015,4.206 -0.015,4.406 0,0.2 -0.008,0.787 0.716,0.787 0.722,0 1.413,0.017 1.955,0.017 0.543,0 1.249,0.413 1.249,1.396 0,0.984 -0.014,5.845 -0.014,6.277 0,0.429 0.502,0.839 0.815,0.845 C -5.355,0.003 -0.279,0 0,0" />
          </g>
          <g
             transform="translate(220.519,61.5068)"
             id="g3445">
            <path
               inkscape:connector-curvature="0"
               id="path3447"
               style="fill:#ca2027;fill-opacity:1;fill-rule:nonzero;stroke:none"
               d="m 0,0 c 0.018,-3.072 -0.934,-2.944 -1.198,-2.944 -0.261,0 -4.486,-0.018 -5.714,-0.018 -1.227,0 -1.437,1.368 -1.546,1.695 -0.105,0.314 -1.052,2.052 -3.746,2.052 -2.694,0 -3.527,-1.944 -3.527,-2.907 0,-0.962 0.004,-15.845 0.004,-17.278 0,-1.619 0.732,-2.077 1.411,-2.364 0.678,-0.287 1.63,-0.52 2.505,-0.52 0.877,0 1.13,-0.413 1.13,-0.844 0,-0.43 -0.029,-3.143 -0.029,-3.408 0,-0.267 -0.527,-0.965 -1.205,-0.965 -0.68,0 -14.251,-0.003 -14.6,-0.003 -0.395,0 -0.981,0.402 -0.981,0.69 0,0.287 -0.023,3.378 -0.023,3.89 0,0.513 0.207,0.75 0.521,0.823 0.448,0.026 0.614,0.013 1.03,0.013 0.416,0 2.446,0.3 2.446,2.348 0,2.048 0.019,16.172 0.008,18.485 -0.008,2.151 -1.356,2.562 -2.015,2.545 -0.372,-0.01 -0.838,0.029 -1.144,0.029 -0.306,0 -0.846,0.134 -0.846,0.708 l 0,3.879 c 0,0.432 0.189,0.722 0.671,0.722 0.481,0 11.784,0.013 11.784,0.013 2.571,0.396 3.041,0.608 8.119,0.463 C -2.155,6.967 -0.013,2.073 0,0" />
          </g>
          <g
             transform="translate(241.3364,68.4326)"
             id="g3449">
            <path
               inkscape:connector-curvature="0"
               id="path3451"
               style="fill:#ca2027;fill-opacity:1;fill-rule:nonzero;stroke:none"
               d="m 0,0 c 5.979,0.088 9.441,-2.428 9.87,-2.428 0.427,0 3.45,2.471 12.157,2.44 12.321,-0.044 16.645,-9.426 16.645,-17.874 0,-8.45 -1.108,-9.589 -0.44,-10.196 1.166,-1.058 3.075,-0.368 3.016,-1.535 -0.046,-0.89 -0.046,-3.995 -0.046,-4.178 0,-0.185 -0.539,-0.884 -0.966,-0.884 -0.427,0 -9.213,0.048 -10.659,0.048 -1.444,0 -1.182,0.872 -0.789,2.071 1.306,3.966 1.334,10.004 1.347,14.766 0.032,10.597 -4.934,11.175 -9.928,11.636 -3.008,0.278 -5.093,-0.939 -5.322,-1.308 -0.231,-0.369 -0.375,-0.628 -0.289,-0.836 0.573,-1.418 1.799,-5.234 1.793,-10.058 -0.004,-3.194 -0.836,-6.184 -0.823,-8.416 0.019,-2.519 3.33,-1.818 3.323,-3.15 -0.006,-0.943 -0.027,-2.711 -0.027,-3.245 0,-0.533 -0.675,-1.385 -1.266,-1.385 l -11.047,0 c -0.768,0 -0.742,0.643 -0.633,1.546 0.11,0.899 1.604,7.479 1.691,8.318 0.088,0.842 0.248,3.826 0.229,5.138 -0.156,10.259 -1.458,12.903 -10.068,13.464 -2.838,0.185 -4.254,-0.705 -4.277,-1.402 -0.024,-0.838 0.021,-18.858 0.021,-19.55 0,-0.692 0.899,-1.508 2,-1.846 1.1,-0.338 1.896,-0.535 1.896,-1.119 0,-0.583 0.006,-2.46 0.006,-3.137 0,-0.677 -1.115,-1.31 -1.544,-1.31 -0.427,0 -12.426,0.004 -13.101,0.004 -0.674,0 -1.295,0.531 -1.295,0.9 0,0.37 0.017,3.252 0.017,3.666 0,0.415 0.268,0.737 1.337,0.737 1.067,0 2.432,1.582 2.418,2.196 -0.021,0.968 0.004,18.41 0.004,19.208 0,0.799 -0.951,1.973 -2.546,1.987 -0.297,0.003 -0.519,0.035 -0.79,0.032 -0.954,-0.007 -1.21,0.661 -1.21,0.999 0,0.338 0.006,2.813 0.006,3.137 0,0.323 0.246,1.161 0.674,1.161 0.428,0 12.966,0.006 13.655,0.006 C -3.598,-0.028 -2.924,-0.044 0,0" />
          </g>
          <g
             transform="translate(168.6021,69.5889)"
             id="g3453">
            <path
               inkscape:connector-curvature="0"
               id="path3455"
               style="fill:#ca2027;fill-opacity:1;fill-rule:nonzero;stroke:none"
               d="m 0,0 c 12.683,0.005 16.807,-6.848 16.84,-14.044 0.012,-2.725 0,-9.325 0,-11.763 0,-2.437 0.654,-2.88 1.332,-3.514 0.68,-0.635 1.701,-0.984 2.402,-0.984 0.7,0 1.524,-0.766 1.524,-1.442 0,-0.675 -0.031,-1.818 -0.031,-2.352 0,-0.531 -0.175,-1.482 -1.774,-1.474 -1.03,0.005 -18.352,-0.012 -21.003,-0.012 -3.767,0 -14.755,1.257 -14.746,12.257 0.009,10.159 12.895,11.662 17.1,11.675 1.556,0.004 2.417,0.007 3.578,-0.021 1.489,-0.037 2.033,0.217 2.033,0.79 0,0.45 -0.414,1.567 -1.761,2.826 -1.348,1.26 -3.829,1.803 -7.246,1.803 -3.417,0 -4.517,-0.713 -5.064,-1.225 -0.548,-0.512 -1.078,-1.065 -1.065,-2.15 0.004,-0.368 -0.265,-1.114 -0.528,-1.196 -0.263,-0.082 -1.383,0.138 -2.5,0.055 -1.117,-0.082 -1.885,-0.09 -2.564,0.074 -0.679,0.164 -0.839,2.647 -0.839,4.346 0,1.701 0.193,3.48 0.902,4.07 C -12.148,-1.593 -9.736,-0.003 0,0 m 7.293,-18.947 c -0.832,0 -5.12,0.121 -8.296,-0.105 -3.495,-0.247 -5.888,-1.966 -5.893,-5.017 -0.004,-3.442 3.348,-4.871 5.976,-4.855 1.512,0.009 7.907,0.014 8.586,0.014 0.679,0 0.855,0.539 0.855,1.277 0,0.326 -0.022,7.464 -0.022,7.771 0,0.306 -0.373,0.915 -1.206,0.915" />
          </g>
          <g
             transform="translate(301.0112,62.6855)"
             id="g3457">
            <path
               inkscape:connector-curvature="0"
               id="path3459"
               style="fill:#ca2027;fill-opacity:1;fill-rule:nonzero;stroke:none"
               d="m 0,0 c -5.323,-0.012 -9.968,-3.331 -9.99,-10.726 -0.015,-4.536 1.84,-12.221 10.383,-12.179 8.738,0.043 9.503,8.676 9.555,11.995 C 9.973,-9.375 9.134,0.021 0,0 m -18.718,-10.893 c 0.061,13.308 12.086,16.942 19.223,16.947 10.29,0.008 18.037,-5.421 18.041,-16.577 0.003,-10.606 -8.409,-18.339 -18.569,-18.363 -10.947,-0.022 -18.746,7.326 -18.695,17.993" />
          </g>
          <g
             transform="translate(339.0757,78.1465)"
             id="g3461" />
          <g
             transform="translate(337.0347,76.876)"
             id="g3465" />
          <g
             transform="translate(56.9688,26.084)"
             id="g3469" />
          <g
             transform="translate(74.6245,50.5645)"
             id="g3473" />
        </g>
      </g>
    </g>
  </g>
</svg>
