<svg xmlns="http://www.w3.org/2000/svg" xmlns:xlink="http://www.w3.org/1999/xlink" height="31.468" width="139.733" viewBox="0 0 130.99934 29.50176"><defs><linearGradient id="a"><stop stop-color="#eee" offset="0"/><stop stop-color="#fff" offset="1"/></linearGradient><linearGradient id="b" y2="-6.209" xlink:href="#a" gradientUnits="userSpaceOnUse" x2="-565.71" gradientTransform="matrix(3.4283 0 0 1.5789 3256.1 231.86)" y1="370.93" x1="-565.71"/><linearGradient id="c" y2="958.43" xlink:href="#a" gradientUnits="userSpaceOnUse" x2="906.67" y1="958.43" x1="-472.41"/><linearGradient id="d" y2="132.97" xlink:href="#a" gradientUnits="userSpaceOnUse" x2="234.79" y1="1774.3" x1="234.79"/></defs><path fill="url(#b)" stroke="#000" d="M-5.714 224.31h2664.3v600H-5.714z" transform="matrix(.04917 0 0 .04917 .248 -11.03)"/><path fill-opacity=".561" d="M1.997 2.07h24.867v25.362H1.997z"/><g transform="matrix(.01309 0 0 .01202 11.59 3.226)"><title>Layer 1</title><path d="M217.59 140.61h6.02l25.93 13.038q25.93 13.038 34.265 17.084 8.334 4.046 56.722 26.301 48.387 22.254 50.008 22.479 1.62.225 25.697 10.565 24.078 10.34 37.042 15.286 12.965 4.945 37.506 13.488 24.541 8.542 31.024 10.79 6.483 2.248 16.207 5.395 9.724 3.147 25.004 7.643 15.28 4.496 38.895 10.79 23.615 6.294 45.841 11.24 22.226 4.946 28.708 6.294 6.483 1.35 41.21 7.643 34.728 6.294 43.526 7.643 8.798 1.35 43.062 6.744 34.265 5.395 34.728 5.395.463 0 33.34 6.294 32.875 6.294 33.106 6.52l.232.224-1.39 66.988q-1.388 66.988-6.945 173.09-5.556 106.102-8.797 148.36-3.242 42.261-7.409 72.383-4.167 30.122-9.724 57.096-5.556 26.975-12.039 54.4-6.482 27.425-11.576 48.106-5.093 20.681-12.039 44.51-6.945 23.827-8.335 28.772-1.389 4.946-4.167 12.588-2.778 7.643-6.482 18.883-3.705 11.24-11.576 32.37-7.872 21.131-12.965 33.72-5.094 12.587-12.502 30.121-7.409 17.534-18.985 42.261-11.577 24.727-13.891 28.773-2.316 4.046-16.901 29.448-14.586 25.402-17.595 30.122-3.01 4.72-14.354 23.828-11.345 19.107-14.817 24.278-3.473 5.17-10.65 16.185-7.178 11.015-11.576 17.084-4.4 6.07-10.187 14.387-5.788 8.317-11.113 15.286-5.325 6.969-8.335 11.69-3.01 4.72-8.798 12.138t-11.113 14.836q-5.324 7.418-11.576 15.286-6.25 7.868-10.65 13.488-4.399 5.62-18.753 21.355-14.354 15.736-33.802 35.967-19.448 20.231-34.265 34.618-14.818 14.387-19.679 18.208-4.862 3.822-22.689 19.332-17.827 15.511-21.762 18.882-3.936 3.372-19.447 16.635-15.512 13.263-20.374 17.084-4.862 3.822-11.113 8.992-6.25 5.17-17.364 14.162-11.113 8.992-16.9 13.263-5.789 4.271-11.114 7.643-5.325 3.372-19.448 11.689-14.123 8.317-18.522 11.24-4.399 2.922-9.955 6.07-5.556 3.147-11.576 7.193-6.02 4.046-8.798 5.845-2.778 1.798-12.039 6.294-9.26 4.496-22.226 10.34-12.965 5.844-18.058 7.643l-5.093 1.798-5.557-1.349q-5.556-1.348-12.039-4.495-6.482-3.148-21.763-10.79-15.28-7.643-17.595-9.442-2.315-1.798-11.808-7.867-9.492-6.07-14.354-8.992-4.862-2.922-18.985-11.24t-19.448-11.69q-5.325-3.37-11.113-7.642-5.788-4.271-13.197-10.116-7.408-5.845-19.679-15.96-12.27-10.116-21.3-17.534-9.029-7.418-26.393-22.479-17.363-15.06-22.226-18.883-4.862-3.821-21.3-17.984-16.438-14.162-18.29-15.96l-16.438-15.96q-14.585-14.162-20.374-20.231-5.788-6.07-25.467-26.975-19.679-20.906-23.615-25.626-3.935-4.72-11.576-13.937-7.64-9.216-12.039-14.836-4.398-5.62-8.797-11.689-4.4-6.07-9.261-12.588-4.862-6.519-8.798-11.689t-6.714-9.216q-2.778-4.047-7.64-10.565-4.862-6.52-8.334-11.69-3.473-5.17-9.261-13.487-5.788-8.318-8.798-13.038-3.01-4.721-9.724-14.836-6.714-10.116-8.797-13.937-2.084-3.822-11.576-19.332-9.493-15.511-12.502-20.231-3.01-4.721-15.05-25.851-12.039-21.131-18.058-31.921t-10.65-20.232q-4.63-9.442-12.964-28.324-8.335-18.883-8.335-19.333 0-.45-8.335-20.68-8.335-20.232-12.965-31.922-4.63-11.69-12.965-35.518-8.335-23.828-16.669-50.803-8.335-26.975-18.522-65.64-10.187-38.664-14.354-57.547-4.167-18.882-11.576-54.849-7.408-35.966-8.798-47.206-1.389-11.24-6.02-68.787-4.63-57.547-6.019-86.77-1.389-29.223-3.24-62.042-1.853-32.82-5.094-107.45-3.241-74.63-3.241-105.65v-31.02l3.01-1.574q3.009-1.574 16.437-3.822 13.429-2.247 37.043-5.844 23.615-3.597 71.771-11.689 48.156-8.093 68.993-11.689 20.837-3.597 55.102-11.24 34.265-7.643 59.27-14.387 25.003-6.744 43.062-12.589 18.06-5.845 28.245-8.992 10.187-3.147 19.448-6.294 9.261-3.147 37.043-13.488 27.782-10.34 52.091-20.906 24.31-10.565 25.93-10.79 1.621-.225 23.383-10.116 21.763-9.89 39.358-17.983 17.595-8.093 34.728-16.185 17.132-8.093 42.6-21.13l25.466-13.038h6.02z" fill="url(#d)" fill-rule="evenodd"/></g><g><path d="M14.337 9.193c-1.93.041-3.467 1.38-3.467 3.037v1.292h-.933v4.392h.001l-.001.096c0 1.276 1.095 2.302 2.456 2.302h4.07c1.36 0 2.457-1.026 2.457-2.302l-.003-.096h.003v-4.392h-.932V12.23c0-1.682-1.587-3.037-3.558-3.037h-.093zm-.017.885h.071c1.128-.022 2.236.69 2.466 1.635.04.603.061 1.205.074 1.809h-4.997a44.322 44.322 0 0 0-.01-.865c-.285-1.234.922-2.549 2.396-2.579zm.104 5.05c.053 0 .107.004.161.011.579.074.978.533.89 1.027a.882.882 0 0 1-.368.56l.37 1.98H13.38l.368-1.98c-.273-.196-.424-.505-.368-.828.08-.447.53-.768 1.044-.77z" opacity=".98" fill-opacity=".561"/></g><g><g fill="#000" fill-opacity=".561"><path d="M64.888 6.235q-.098-.383-.48-.535-.214-.084-.475-.084-.5 0-.823.343-.32.34-.32 1.025 0 .69.348.977.348.286.792.286.435 0 .714-.225.278-.229.342-.597h-.958v-.624h1.725v2.007h-.573l-.087-.467q-.25.267-.45.376-.342.19-.842.19-.823 0-1.348-.515-.548-.518-.548-1.416 0-.908.554-1.456.553-.548 1.463-.548.789 0 1.266.363.48.36.55.9h-.85zm-.969-1.263zM68.419 8.25q.514 0 .814-.343.303-.342.303-.974 0-.63-.303-.972-.3-.345-.814-.345t-.82.343q-.306.342-.306.974 0 .632.306.974.306.343.82.343zM70.4 6.933q0 1.007-.626 1.542-.469.437-1.356.437-.888 0-1.357-.437-.629-.535-.629-1.542 0-1.027.63-1.542.468-.437 1.356-.437.887 0 1.356.437.626.515.626 1.542zM68.42 4.954zM71.898 5.718v2.44h.798q.612 0 .854-.545.132-.3.132-.713 0-.57-.2-.875-.196-.307-.786-.307h-.798zm.944-.65q.385.006.64.082.436.129.705.474.217.28.295.604.079.325.079.619 0 .746-.332 1.263-.449.698-1.387.698H71.06v-3.74h1.783zM76.346 7.395h1.05l-.516-1.471-.534 1.471zm.054-2.326h.977l1.466 3.739h-.938l-.267-.769h-1.525l-.286.769h-.905l1.478-3.74zm.483 0zM80.213 5.718v2.44h.797q.613 0 .854-.545.132-.3.132-.713 0-.57-.2-.875-.196-.307-.786-.307h-.797zm.943-.65q.385.006.64.082.436.129.706.474.216.28.294.604.08.325.08.619 0 .746-.332 1.263-.45.698-1.388.698h-1.783v-3.74h1.783zM84.37 5.718v2.44h.797q.613 0 .854-.545.132-.3.132-.713 0-.57-.2-.875-.196-.307-.786-.307h-.797zm.943-.65q.385.006.64.082.436.129.706.474.216.28.295.604.078.325.078.619 0 .746-.331 1.263-.45.698-1.388.698H83.53v-3.74h1.783zM90.048 5.068h.98l-1.384 2.334v1.406h-.865V7.402l-1.433-2.334h1.02l.86 1.63.822-1.63zm-.86 0zM93.22 5.388q-.712 0-1.215.467-.494.456-.494 1.083 0 .65.502 1.104.5.454 1.208.454.705 0 1.205-.457.5-.46.5-1.1 0-.625-.498-1.084-.502-.467-1.207-.467zm2.07 1.55q0 .797-.62 1.342-.604.528-1.45.528-.872 0-1.47-.54-.599-.54-.599-1.33 0-.82.646-1.362.607-.508 1.424-.508.856 0 1.463.548.607.548.607 1.322zm-1.696-.388q0-.17-.185-.236-.123-.043-.348-.043h-.146v.601h.233q.21 0 .329-.076.117-.076.117-.246zm-1.28 1.428V5.906l.637.002q.427 0 .475.003.272.017.452.106.306.152.306.495 0 .261-.163.378-.16.117-.396.14.217.04.326.119.202.147.202.464v.185q0 .03.003.061.006.03.017.06l.02.06h-.573q-.028-.1-.037-.287-.008-.188-.036-.254-.045-.11-.169-.152-.067-.026-.205-.033l-.132-.008h-.126v.733h-.601z"/></g><g fill="#333"><path d="M51.939 22.718h.758l-1.191 2.494h-.69l-1.178-2.494h.779l.757 1.893.765-1.893zM55.716 23.159h-1.847v.53h1.695v.433H53.87v.64h1.932v.45h-2.645v-2.495h2.56v.442zM57.1 23.15v.67h.827q.246 0 .369-.04.218-.07.218-.28 0-.227-.211-.305-.118-.044-.355-.044H57.1zm1-.432q.366.005.563.064.199.06.336.174.114.095.18.21.066.115.066.262 0 .178-.125.35-.126.171-.415.242.242.07.341.198.102.127.102.39v.167q0 .17.02.232.028.096.132.142v.063h-.803q-.033-.083-.047-.134-.029-.105-.031-.215l-.005-.232q-.005-.238-.123-.318-.116-.08-.438-.08H57.1v.979h-.712v-2.494h1.711zM60.543 25.211h-.725v-2.493h.725v2.493zm-.362-2.543zM61.232 22.72h2.475v.439h-1.75v.574h1.532v.433h-1.532v1.045h-.725v-2.49zM66.184 22.718h.826l-1.167 1.556v.938h-.73v-.938l-1.207-1.556h.86l.724 1.086.694-1.086zm-.725 0zM69.298 24.442q.033.17.13.255.177.154.608.154.258 0 .42-.04.305-.078.305-.29 0-.123-.152-.19-.151-.067-.476-.118l-.369-.059q-.545-.088-.753-.191-.353-.173-.353-.54 0-.335.341-.556.341-.222 1.002-.222.551 0 .94.21.39.208.41.605h-.702q-.019-.225-.274-.32-.17-.062-.424-.062-.282 0-.45.081-.168.082-.168.227 0 .134.166.2.106.044.454.103l.602.103q.395.068.596.181.313.176.313.51 0 .341-.367.568-.365.225-1.032.225-.682 0-1.073-.222-.39-.223-.39-.612h.696zm.707-1.8zM74.577 23.159h-1.846v.53h1.695v.433H72.73v.64h1.932v.45h-2.645v-2.495h2.56v.442zM75.084 23.985q0-.653.49-1.007.426-.308 1.084-.308.88 0 1.288.413.225.232.242.465h-.73q-.07-.179-.182-.27-.199-.163-.59-.163-.397 0-.627.23-.23.229-.23.648 0 .42.242.63.244.208.618.208.384 0 .585-.18.111-.096.184-.289h.722q-.094.408-.485.663-.388.256-.997.256-.753 0-1.183-.345-.431-.347-.431-.951zm1.553-1.344zM78.742 22.718h.74v1.533q0 .257.086.375.133.21.578.21.443 0 .575-.21.085-.118.085-.375v-1.533h.741v1.533q0 .397-.172.619-.322.406-1.23.406-.906 0-1.23-.406-.173-.222-.173-.62v-1.532zm1.404 0zM82.976 23.15v.67h.827q.246 0 .37-.04.217-.07.217-.28 0-.227-.21-.305-.12-.044-.356-.044h-.848zm1-.432q.367.005.563.064.199.06.336.174.114.095.18.21.066.115.066.262 0 .178-.125.35-.125.171-.414.242.241.07.34.198.102.127.102.39v.167q0 .17.02.232.028.096.132.142v.063h-.803q-.033-.083-.047-.134-.028-.105-.03-.215l-.006-.232q-.004-.238-.123-.318-.116-.08-.438-.08h-.753v.979h-.712v-2.494h1.712zM86.42 25.211h-.725v-2.493h.724v2.493zm-.363-2.543zM89.64 22.718v.441h-1.043v2.053h-.734v-2.053h-1.05v-.441h2.828zM92.06 22.718h.826l-1.167 1.556v.938h-.73v-.938l-1.207-1.556h.86l.724 1.086.694-1.086zm-.725 0zM94.635 25.211v-2.493h.722v.95h1.364v-.95h.724v2.493h-.724v-1.113h-1.364v1.113h-.722zM100.728 23.159h-1.846v.53h1.695v.433h-1.695v.64h1.932v.45h-2.645v-2.495h2.56v.442zM102.113 23.15v.67h.826q.246 0 .37-.04.217-.07.217-.28 0-.227-.21-.305-.119-.044-.356-.044h-.847zm.999-.432q.367.005.564.064.198.06.336.174.113.095.18.21.066.115.066.262 0 .178-.126.35-.125.171-.414.242.242.07.341.198.102.127.102.39v.167q0 .17.019.232.028.096.132.142v.063h-.802q-.033-.083-.048-.134-.028-.105-.03-.215l-.005-.232q-.005-.238-.123-.318-.116-.08-.438-.08h-.753v.979h-.713v-2.494h1.712zM107.468 23.159h-1.847v.53h1.696v.433h-1.696v.64h1.932v.45h-2.644v-2.495h2.56v.442z"/></g><g fill="#000" fill-opacity=".431"><path d="M33.316 18.545l-2.48-6.497h.918l2.058 5.47 2.063-5.47h.914l-2.476 6.497h-.997zM37.733 12.048h4.108v.74h-3.229v1.923h3.094v.74h-3.094v2.354h3.307v.74h-4.186v-6.497zM46.436 15.499q.283.095.548.409.27.313.54.861l.892 1.776h-.944l-.831-1.667q-.322-.653-.627-.866-.3-.213-.822-.213h-.958v2.746h-.879v-6.497h1.984q1.114 0 1.663.466.548.465.548 1.405 0 .614-.287 1.018-.283.405-.827.562zm-2.202-2.729v2.307h1.105q.636 0 .958-.292.326-.296.326-.866 0-.57-.326-.857-.322-.292-.958-.292h-1.105zM49.55 12.048h.88v6.497h-.88v-6.497zM52.181 12.048h3.734v.74H53.06v1.914h2.576v.74H53.06v3.103h-.879v-6.497zM57.3 12.048h.879v6.497h-.88v-6.497zM59.925 12.048h4.108v.74h-3.229v1.923h3.094v.74h-3.094v2.354h3.307v.74h-4.186v-6.497zM66.425 12.77v5.053h1.062q1.345 0 1.967-.61.627-.609.627-1.923 0-1.306-.627-1.91-.622-.61-1.967-.61h-1.062zm-.879-.722h1.806q1.889 0 2.772.788.884.783.884 2.454 0 1.68-.888 2.467-.888.788-2.768.788h-1.806v-6.497zM76.535 15.05q-.396.353-.583.705-.183.348-.183.731 0 .636.461 1.058.461.422 1.158.422.413 0 .774-.135.361-.14.68-.418l-2.307-2.363zm.613-.487l2.21 2.263q.258-.388.401-.827.144-.444.17-.94h.81q-.053.574-.28 1.136-.225.561-.63 1.11l1.214 1.24h-1.097l-.622-.64q-.452.387-.949.579-.496.187-1.066.187-1.048 0-1.714-.596-.666-.6-.666-1.536 0-.557.292-1.045.291-.492.874-.922-.209-.274-.317-.544-.11-.274-.11-.536 0-.704.484-1.13.483-.432 1.284-.432.36 0 .718.079.36.078.73.235v.792q-.378-.205-.722-.31-.344-.108-.64-.108-.456 0-.744.243-.282.24-.282.623 0 .222.126.448.13.222.526.631zM88.92 12.26v.858q-.5-.24-.944-.357-.444-.117-.857-.117-.718 0-1.11.278-.387.279-.387.792 0 .431.257.653.26.218.983.353l.531.108q.984.187 1.45.662.47.47.47 1.262 0 .944-.636 1.431-.631.488-1.854.488-.461 0-.983-.105-.518-.104-1.075-.309v-.905q.535.3 1.049.453.513.152 1.01.152.752 0 1.161-.296.409-.296.409-.844 0-.479-.296-.748-.291-.27-.962-.405l-.535-.105q-.983-.195-1.423-.613-.44-.418-.44-1.162 0-.862.606-1.358.609-.496 1.675-.496.457 0 .931.083.474.083.97.248zM90.7 12.048h4.108v.74H91.58v1.923h3.093v.74H91.58v2.354h3.307v.74H90.7v-6.497zM101.188 12.548v.927q-.443-.413-.948-.618-.5-.204-1.066-.204-1.114 0-1.706.683-.592.679-.592 1.967 0 1.283.592 1.967.592.678 1.706.678.565 0 1.066-.204.505-.205.948-.618v.918q-.46.313-.979.47-.513.157-1.088.157-1.475 0-2.323-.901-.849-.905-.849-2.467 0-1.567.849-2.468.848-.905 2.323-.905.584 0 1.097.157.518.152.97.461zM102.452 12.048h.883v3.947q0 1.044.379 1.505.379.457 1.227.457.844 0 1.223-.457.379-.46.379-1.505v-3.947h.883v4.056q0 1.27-.631 1.919-.627.648-1.854.648-1.231 0-1.862-.648-.627-.649-.627-1.92v-4.055zM112.163 15.499q.283.095.548.409.27.313.54.861l.892 1.776h-.944l-.831-1.667q-.322-.653-.627-.866-.3-.213-.823-.213h-.957v2.746h-.879v-6.497h1.984q1.114 0 1.663.466.548.465.548 1.405 0 .614-.287 1.018-.283.405-.827.562zm-2.202-2.729v2.307h1.105q.636 0 .958-.292.326-.296.326-.866 0-.57-.326-.857-.322-.292-.958-.292h-1.105zM115.28 12.048h4.108v.74h-3.229v1.923h3.094v.74h-3.094v2.354h3.308v.74h-4.187v-6.497zM121.78 12.77v5.053h1.062q1.345 0 1.967-.61.627-.609.627-1.923 0-1.306-.627-1.91-.622-.61-1.967-.61h-1.061zm-.878-.722h1.806q1.888 0 2.771.788.884.783.884 2.454 0 1.68-.888 2.467-.888.788-2.767.788h-1.806v-6.497z"/></g></g></svg>